<svg xmlns="http://www.w3.org/2000/svg" width="512" height="512" viewBox="0 0 512 512" version="1.1">
	<path d="M 255.063 39.002 C 255.007 41.238, 251.826 59.241, 250.542 64.595 C 250.075 66.543, 249.148 66.732, 237.270 67.309 C 215.772 68.352, 197.326 73.037, 176.911 82.640 C 171.448 85.209, 166.831 87.129, 166.651 86.906 C 166.471 86.683, 162.550 80.727, 157.938 73.672 C 153.326 66.616, 149.405 61.286, 149.225 61.826 C 149.044 62.367, 150.945 69.076, 153.448 76.736 C 155.952 84.395, 157.995 91.301, 157.988 92.081 C 157.982 92.861, 155.342 94.947, 152.121 96.715 C 133.079 107.173, 111.580 127.671, 98.592 147.750 C 96.013 151.738, 93.662 155, 93.368 155 C 93.073 155, 86.907 151.896, 79.666 148.103 C 66.165 141.030, 61.944 139.249, 62.074 140.683 C 62.168 141.709, 76.577 154.225, 84.297 159.986 C 87.486 162.365, 89.880 164.804, 89.618 165.406 C 89.356 166.008, 87.117 171.042, 84.641 176.594 C 75.423 197.267, 68.871 221.814, 67.375 241.287 C 67.003 246.116, 66.418 250.242, 66.074 250.454 C 65.729 250.667, 58.034 251.377, 48.974 252.032 C 39.913 252.687, 32.140 253.556, 31.699 253.963 C 31.259 254.369, 38.234 255.691, 47.199 256.900 C 56.165 258.110, 64.288 259.332, 65.250 259.617 C 66.636 260.027, 67 261.255, 67 265.516 C 67 286.050, 74.741 318.057, 84.611 338.336 C 87.025 343.296, 88.987 347.838, 88.971 348.427 C 88.955 349.017, 86.147 351.525, 82.732 354 C 70.494 362.868, 61.579 370.488, 63.098 370.780 C 63.927 370.940, 71.082 368.130, 78.999 364.535 C 86.916 360.941, 93.663 358, 93.992 358 C 94.322 358, 97.908 363.045, 101.960 369.212 C 112.253 384.874, 131.250 403.883, 146.773 414.053 C 154.875 419.361, 157.883 421.862, 157.468 422.944 C 154.367 431.024, 148.932 448.296, 149.219 449.157 C 149.420 449.759, 152.333 446.483, 155.693 441.876 C 159.054 437.269, 163.184 432.191, 164.872 430.591 L 167.941 427.682 176.720 431.732 C 195.705 440.489, 213.762 445.162, 236 447.074 C 243.425 447.712, 249.637 448.356, 249.805 448.505 C 249.973 448.654, 251.321 455.352, 252.801 463.388 C 254.281 471.425, 255.767 478, 256.104 478 C 256.440 478, 257.039 473.163, 257.435 467.250 C 257.830 461.338, 258.462 454.700, 258.838 452.500 C 259.473 448.795, 259.780 448.482, 263.011 448.256 C 274.612 447.443, 289.521 445.692, 296 444.381 C 306.622 442.232, 322.831 436.676, 332.598 431.837 C 342.462 426.949, 341.077 426.339, 351.838 440.311 C 356.019 445.740, 359.607 449.679, 359.812 449.065 C 360.016 448.452, 358.567 442.588, 356.592 436.035 C 354.616 429.482, 353 423.276, 353 422.244 C 353 421.074, 354.598 419.482, 357.250 418.011 C 377.894 406.562, 395.040 390.295, 409.578 368.369 L 416.958 357.238 424.729 361.344 C 436.105 367.354, 448.350 372.984, 448.883 372.450 C 449.139 372.194, 443.547 366.443, 436.456 359.669 L 423.564 347.353 428.720 335.274 C 438.070 313.370, 442.391 296.127, 444.073 274 C 444.680 266.025, 445.300 259.374, 445.452 259.220 C 446.016 258.646, 469.600 256, 474.153 256 C 484.187 256, 479.265 254.213, 464.720 252.576 C 444.033 250.247, 445.372 250.668, 444.644 246.264 C 444.302 244.194, 444.017 240.632, 444.011 238.349 C 443.994 231.946, 440.415 212.601, 437.193 201.500 C 434.758 193.112, 431.139 183.338, 424.735 167.856 C 423.483 164.830, 422.497 165.912, 440.350 150.728 C 446.548 145.457, 450.579 141.374, 449.752 141.206 C 448.956 141.044, 444.748 142.533, 440.402 144.515 C 436.056 146.496, 428.818 149.417, 424.318 151.006 L 416.137 153.896 409.447 143.847 C 397.942 126.564, 377.247 107.036, 358.653 95.914 C 355.544 94.054, 353 91.832, 353 90.975 C 353 90.118, 355.020 83.393, 357.490 76.031 C 359.959 68.669, 361.803 62.470, 361.588 62.255 C 361.374 62.040, 359.052 64.932, 356.430 68.682 C 347.635 81.257, 343.942 86, 342.945 86 C 342.401 86, 338.478 84.252, 334.228 82.116 C 315.920 72.913, 297.044 68.210, 274.746 67.294 C 262.594 66.796, 259.753 66.396, 259.083 65.093 C 258.633 64.217, 257.954 58.406, 257.574 52.180 C 257.194 45.954, 256.488 39.879, 256.005 38.680 C 255.151 36.560, 255.125 36.568, 255.063 39.002 M 238.017 79.110 C 216.558 80.650, 198.947 85.320, 181.250 94.162 C 175.613 96.979, 171 99.596, 171 99.979 C 171 100.362, 173.480 101.890, 176.510 103.374 C 191.970 110.944, 210.318 108.887, 228.356 97.562 C 239.907 90.311, 254.547 77.325, 250.250 78.143 C 249.838 78.221, 244.333 78.657, 238.017 79.110 M 262.583 81.467 C 273.826 91.420, 292.536 102.831, 302.855 106.030 C 313.674 109.384, 328.643 108.342, 337.814 103.597 C 339.636 102.654, 340.956 101.347, 340.745 100.691 C 340.137 98.795, 330.590 93.446, 320.866 89.554 C 304.273 82.913, 281.013 78.059, 265.583 78.018 L 258.667 78 262.583 81.467 M 255.221 98.250 L 255 113 250.131 113 C 242.844 113, 229.198 115.624, 218.241 119.132 C 186.132 129.413, 155.200 151.315, 140.048 174.500 C 101.040 234.188, 110.013 316.909, 160.179 360.085 C 175.002 372.843, 198.347 386.238, 215.548 391.854 C 230.274 396.663, 243.002 398.359, 259.387 397.695 C 279.152 396.894, 292.305 393.675, 313.069 384.557 C 334.817 375.006, 360.611 354.084, 371.485 337.173 C 381.737 321.230, 390.503 299.284, 393.700 281.558 C 395.853 269.618, 395.848 245.699, 393.689 232.988 C 385.472 184.614, 359.241 150.068, 313.308 127.127 C 297.122 119.043, 280.948 114.397, 265.276 113.330 L 256.052 112.702 255.747 98.101 L 255.442 83.500 255.221 98.250 M 155.500 108.612 C 139.251 118.683, 126.714 130.240, 115.275 145.696 C 108.969 154.216, 102.494 164.828, 103.182 165.516 C 103.401 165.734, 106.672 165.265, 110.452 164.474 C 129.942 160.397, 144.079 147.472, 149.467 128.804 L 151.111 123.107 155.954 123.681 C 158.618 123.996, 163.787 123.935, 167.440 123.543 C 173.656 122.878, 174.039 122.693, 173.418 120.666 C 172.232 116.794, 165.739 103, 165.111 103.017 C 164.775 103.027, 160.450 105.545, 155.500 108.612 M 343.071 105.250 C 342.587 106.487, 340.851 110.954, 339.212 115.176 L 336.232 122.851 343.719 123.553 C 347.837 123.939, 353.371 123.998, 356.017 123.684 L 360.828 123.115 362.031 128.307 C 365.039 141.287, 374.716 154.754, 384.693 159.843 C 389.669 162.382, 402.381 166, 406.325 166 L 409.190 166 406.437 161.250 C 398.082 146.833, 384.971 131.352, 371.906 120.476 C 363.578 113.545, 347.397 103, 345.086 103 C 344.462 103, 343.555 104.013, 343.071 105.250 M 171 104.267 C 171 105.753, 181.796 126.532, 183.852 129 C 187.793 133.734, 185.965 129.469, 178.492 116.500 C 174.372 109.350, 171.001 103.845, 171 104.267 M 335.193 110.250 C 330.697 116.831, 323.715 130, 324.721 130 C 325.217 130, 327.815 126.063, 330.494 121.250 C 333.173 116.438, 336.227 111.037, 337.281 109.250 C 340.045 104.563, 338.608 105.251, 335.193 110.250 M 244.605 120.058 C 207.838 124.123, 165.851 148.616, 144.996 178.163 C 131.896 196.722, 123.910 220.715, 122.080 247.013 C 118.812 293.956, 136.144 334.146, 170.968 360.379 C 198.419 381.057, 226.338 391.413, 254.500 391.364 C 299.177 391.285, 348.248 364.241, 370.380 327.500 C 374.435 320.769, 374.649 320, 372.467 320 C 370.460 320, 363.115 316.296, 349.250 308.294 C 341.141 303.614, 338 301.270, 338 299.900 C 338 298.810, 338.695 298, 339.630 298 C 341.971 298, 372.791 315.808, 373.928 317.818 C 375.816 321.154, 384.148 299.024, 387.650 281.374 C 390.009 269.483, 390.009 245.211, 387.649 231.500 C 381.489 195.715, 361.955 165.685, 331.816 145.666 C 301.528 125.548, 272.375 116.988, 244.605 120.058 M 249.655 131.829 C 246.177 135.671, 249.273 144, 254.180 144 C 257.152 144, 261 140.010, 261 136.927 C 261 131.072, 253.422 127.666, 249.655 131.829 M 313.234 140.250 C 311.012 142.999, 298 170.106, 298 171.987 C 298 174.680, 300.415 174.545, 302.236 171.750 C 305.164 167.255, 316 143.114, 316 141.084 C 316 138.744, 314.755 138.369, 313.234 140.250 M 192.739 140.613 C 191.617 142.428, 206.472 174.155, 208.750 174.808 C 211.565 175.615, 209.678 169.254, 203.475 157.024 C 196.623 143.516, 193.704 139.053, 192.739 140.613 M 253 151.500 C 253 155.722, 253.348 157, 254.500 157 C 255.578 157, 256 155.898, 256 153.082 C 256 148.653, 255.211 146, 253.893 146 C 253.402 146, 253 148.475, 253 151.500 M 102.453 168.923 C 103.077 169.933, 125.582 184.902, 127.695 185.713 C 128.413 185.989, 129 185.753, 129 185.190 C 129 183.893, 105.259 168, 103.322 168 C 102.530 168, 102.139 168.416, 102.453 168.923 M 248 169.622 C 224.969 172.373, 200.345 186.016, 187.885 202.931 C 175.587 219.626, 168.715 245.556, 171.030 266.531 C 173.498 288.895, 184.835 310.827, 200.106 322.782 C 232.458 348.108, 274.209 349.125, 307.654 325.401 C 317.183 318.642, 323.474 310.911, 329.546 298.500 C 337.936 281.352, 339.513 274.573, 339.433 256 C 339.374 242.075, 339.089 239.593, 336.637 231.573 C 332.842 219.168, 325.102 204.559, 318.400 197.153 C 312.505 190.638, 296.886 179.586, 288.500 175.995 C 277.908 171.459, 258.366 168.384, 248 169.622 M 401 173.322 C 393.052 177.305, 382 184.716, 382 186.063 C 382 187.312, 385.961 185.291, 398.252 177.771 C 411.631 169.584, 413.053 167.282, 401 173.322 M 96.115 179.378 C 86.687 202.025, 78.149 237.397, 79.184 249.518 L 79.500 253.214 86.216 247.049 C 103.531 231.156, 110.947 210.428, 106.609 190.047 C 104.948 182.240, 101.146 172, 99.909 172 C 99.512 172, 97.804 175.320, 96.115 179.378 M 329.017 173.293 C 323.448 176.094, 324.240 184.305, 330.283 186.431 C 332.459 187.196, 333.555 186.978, 335.752 185.345 C 342.604 180.252, 336.586 169.485, 329.017 173.293 M 410.348 175.711 C 404.445 189.838, 403.432 208.681, 407.949 220.340 C 411.207 228.751, 417.653 237.644, 425.059 243.944 L 431.500 249.424 431.816 245.624 C 432.242 240.496, 429.445 221.665, 426.525 210 C 422.832 195.250, 414.204 172, 412.423 172 C 412.134 172, 411.200 173.670, 410.348 175.711 M 174 175 C 170.483 178.517, 171.518 184.182, 176.113 186.558 C 180.122 188.631, 183.900 187.468, 185.498 183.668 C 186.955 180.202, 186.582 178.478, 183.677 175.250 C 181.145 172.437, 176.678 172.322, 174 175 M 251.655 179.766 C 244.477 190.563, 237.074 194.443, 228.205 192.055 C 225.942 191.446, 222.768 189.834, 221.151 188.474 C 219.534 187.113, 217.939 186, 217.606 186 C 217.273 186, 217 188.170, 217 190.822 C 217 205.739, 206.296 217, 192.117 217 C 186.492 217, 185.924 217.185, 186.452 218.848 C 187.872 223.323, 189.998 236.580, 189.978 240.838 C 189.966 243.402, 189.079 247.432, 188.007 249.794 C 186.405 253.324, 185.121 254.504, 180.779 256.435 L 175.500 258.782 179.754 260.501 C 188.571 264.064, 191.308 271.170, 188.610 283.500 C 187.768 287.350, 186.811 291.407, 186.484 292.517 C 185.936 294.373, 186.351 294.536, 191.694 294.571 C 198.764 294.617, 204.104 297.159, 209.363 302.980 C 213.773 307.861, 214.781 310.190, 216.515 319.500 C 217.233 323.350, 217.860 325.944, 217.910 325.264 C 217.959 324.584, 219.823 322.822, 222.051 321.348 C 232.214 314.622, 247.654 320.354, 253.278 332.940 L 255.262 337.380 257.140 333.718 C 259.773 328.587, 266.598 322.319, 271.657 320.387 C 278.017 317.958, 286.781 318.833, 291.402 322.358 L 295 325.102 295 320.588 C 295 314.132, 298.339 306.040, 302.744 301.819 C 308.223 296.569, 312.305 294.835, 319.106 294.867 C 322.348 294.883, 325 294.749, 325 294.570 C 325 294.391, 324.256 292.502, 323.346 290.372 C 322.242 287.789, 321.659 283.446, 321.596 277.324 C 321.503 268.440, 321.596 268.046, 324.500 264.981 C 326.150 263.239, 329.213 261.122, 331.308 260.275 L 335.115 258.737 330.308 255.974 C 321.491 250.909, 319.726 244.140, 322.715 226.845 L 324.556 216.190 319.286 216.734 C 312.417 217.443, 306.227 215.100, 301.684 210.072 C 297.955 205.944, 294 196.666, 294 192.044 C 294 186.293, 293.210 185.835, 288.796 189.033 C 278.580 196.433, 269.063 193.013, 259.960 178.670 L 256.260 172.840 251.655 179.766 M 138.438 191.101 C 138.063 191.706, 138.604 193.048, 139.638 194.083 C 142.393 196.837, 171.120 213.044, 172.136 212.416 C 173.828 211.370, 172.939 209.468, 169.743 207.298 C 164.812 203.950, 140.718 190, 139.867 190 C 139.455 190, 138.812 190.495, 138.438 191.101 M 363.500 193.317 C 348.832 201.381, 336.500 209.732, 336.500 211.603 C 336.500 212.770, 337.152 213.450, 338.193 213.371 C 341.425 213.123, 373.053 193.579, 372.757 192.011 C 372.287 189.513, 369.775 189.867, 363.500 193.317 M 254.671 208 C 252.354 214.564, 250.647 248.426, 252.328 254.484 L 253.155 257.467 250.983 254.706 C 249.788 253.187, 247.052 251.047, 244.903 249.951 C 239.937 247.417, 220.576 242.808, 216.552 243.201 C 213.607 243.490, 213.751 243.664, 220.645 248.176 C 224.574 250.748, 229.638 253.795, 231.896 254.947 C 237.208 257.657, 247.599 260.310, 250.631 259.730 C 253.758 259.132, 253.637 259.501, 249.528 263.109 C 247.619 264.786, 244.745 268.484, 243.141 271.329 C 239.237 278.253, 232.660 294.998, 233.516 295.833 C 235.918 298.177, 256 267.197, 256 261.147 C 256 260.101, 256.739 257.502, 257.643 255.372 C 259.708 250.507, 259.879 235.711, 258.042 221 C 256.611 209.536, 255.559 205.482, 254.671 208 M 279.500 245.875 C 267.780 249.064, 264.712 250.569, 260.054 255.415 L 256.608 259 263.054 258.999 C 268.123 258.999, 270.839 258.365, 275.768 256.033 C 283.069 252.579, 295.792 245.146, 296.577 243.875 C 297.606 242.211, 289.461 243.164, 279.500 245.875 M 152.251 249.491 C 150.464 250.267, 148.469 252.070, 147.819 253.497 C 146.779 255.780, 146.936 256.390, 149.122 258.577 C 152.685 262.140, 157.783 262.745, 161.250 260.018 C 164.701 257.304, 164.811 253.721, 161.545 250.455 C 158.760 247.669, 156.889 247.475, 152.251 249.491 M 350.655 250.829 C 348.561 253.142, 348.516 258.373, 350.571 260.429 C 353.016 262.873, 358.673 262.418, 361.545 259.545 C 364.616 256.474, 364.658 253.967, 361.686 251.174 C 358.768 248.434, 352.987 248.252, 350.655 250.829 M 124.496 255.007 C 123.466 256.674, 126.178 257.094, 135.994 256.790 C 142.365 256.592, 145.470 256.102, 145.752 255.250 C 146.273 253.679, 125.463 253.441, 124.496 255.007 M 366 255.536 C 366 256.832, 367.515 257.028, 375.669 256.786 C 382.302 256.590, 385.468 256.108, 385.752 255.250 C 386.065 254.305, 383.704 254, 376.083 254 C 367.681 254, 366 254.256, 366 255.536 M 79.500 256 C 79.097 256.651, 84.656 257, 95.441 257 C 105.814 257, 112 256.626, 112 256 C 112 255.375, 106.020 255, 96.059 255 C 86.510 255, 79.870 255.401, 79.500 256 M 401 256 C 401 256.615, 405.980 257, 413.941 257 C 421.490 257, 427.139 256.583, 427.500 256 C 427.900 255.352, 423.344 255, 414.559 255 C 406.186 255, 401 255.383, 401 256 M 426.939 262.430 C 421.183 266.614, 413.945 274.848, 410.563 281.061 C 407.264 287.122, 403.995 299.784, 404.017 306.410 C 404.027 309.209, 404.655 314.426, 405.413 318.001 C 406.894 324.986, 412.012 339, 413.082 339 C 413.440 339, 416.039 333.225, 418.858 326.166 C 427.657 304.133, 432.528 281.653, 431.828 266.308 L 431.500 259.116 426.939 262.430 M 79.347 270.643 C 80.599 289.280, 87.753 317.275, 95.409 333.500 L 98.713 340.500 101.368 334.599 C 109.645 316.206, 109.769 298.736, 101.730 283.640 C 98.259 277.120, 86.951 265.060, 81.824 262.409 L 78.685 260.786 79.347 270.643 M 257 263.104 C 257 267.024, 264.156 278.852, 271.272 286.694 C 275.168 290.987, 278.725 294.650, 279.177 294.833 C 283.999 296.787, 266.931 266.867, 260.757 262.543 C 257.808 260.477, 257 260.598, 257 263.104 M 164.441 301.164 C 155.669 305.729, 139.760 315.041, 137.754 316.785 C 136.447 317.921, 136.284 318.637, 137.104 319.625 C 138.414 321.204, 138.423 321.200, 158.750 309.775 C 166.588 305.371, 173 301.424, 173 301.006 C 173 300.587, 172.411 299.756, 171.691 299.158 C 170.715 298.348, 168.872 298.858, 164.441 301.164 M 124.495 326.792 C 118.954 329.942, 101.007 342.180, 100.336 343.266 C 99.245 345.030, 102.720 343.334, 113.809 336.689 C 125.050 329.954, 131.428 325.080, 129 325.083 C 128.175 325.083, 126.148 325.852, 124.495 326.792 M 176.455 327.455 C 173.456 330.453, 173.351 332.905, 176.073 336.365 C 180.030 341.397, 188 338.825, 188 332.516 C 188 330.066, 187.281 328.579, 185.365 327.073 C 181.905 324.351, 179.453 324.456, 176.455 327.455 M 328.488 327.013 C 324.343 331.593, 327.491 339, 333.582 339 C 337.785 339, 341.409 334.841, 340.514 331.043 C 339.196 325.450, 332.065 323.060, 328.488 327.013 M 384.036 327.428 C 385.973 329.317, 406.994 342, 408.188 342 C 410.174 342, 407.526 339.797, 397.406 333.030 C 391.624 329.163, 385.921 326, 384.732 326 C 382.843 326, 382.755 326.179, 384.036 327.428 M 205.462 339.074 C 201.359 347.009, 192 369.683, 192 371.690 C 192 372.410, 192.619 373, 193.375 373 C 194.940 373, 210.247 340.512, 209.790 338.160 C 209.254 335.398, 207.131 335.846, 205.462 339.074 M 299.388 340.411 C 300.678 345.548, 314.382 373, 315.658 373 C 316.396 373, 317 372.282, 317 371.404 C 317 369.506, 305.587 343.283, 303.405 340.167 C 301.264 337.112, 298.601 337.273, 299.388 340.411 M 103 348.047 C 103 348.623, 106.416 354.361, 110.590 360.797 C 120.463 376.019, 139.539 395.236, 154.721 405.255 C 160.343 408.965, 165.335 412, 165.816 412 C 166.296 412, 168.566 406.518, 170.859 399.818 C 175.204 387.123, 175.155 385.311, 170.500 386.473 C 169.400 386.748, 164.955 386.979, 160.623 386.986 L 152.746 387 153.226 392 C 153.691 396.840, 152.772 398.817, 151.715 395.250 C 147.122 379.758, 144.535 372.009, 142.856 368.718 C 139.612 362.359, 132.537 355.537, 125.734 352.210 C 117.334 348.101, 103 345.477, 103 348.047 M 392.798 348.931 C 378.601 353.470, 368.423 363.568, 364.001 377.500 C 363.303 379.700, 361.808 383.975, 360.680 387 C 358.858 391.883, 358.560 392.220, 358.021 390 C 357.429 387.561, 357.165 387.493, 347.207 387.215 C 341.593 387.058, 336.998 387.283, 336.995 387.715 C 336.989 388.585, 344.186 411.260, 344.673 411.907 C 344.842 412.130, 348.922 409.697, 353.740 406.499 C 374.682 392.599, 389.155 378.092, 403.852 356.270 C 410.123 346.958, 410.123 346.991, 403.857 347.054 C 400.911 347.083, 395.934 347.928, 392.798 348.931 M 249.571 356.571 C 247.422 358.721, 247.569 364.300, 249.829 366.345 C 253.843 369.977, 261 367.157, 261 361.943 C 261 356.220, 253.464 352.678, 249.571 356.571 M 253 374.941 C 253 377.109, 253.450 379.160, 254 379.500 C 254.611 379.878, 255 378.344, 255 375.559 C 255 373.052, 254.550 371, 254 371 C 253.450 371, 253 372.773, 253 374.941 M 177.500 393 C 174.466 399.050, 172.183 404, 172.428 404 C 172.673 404, 175.084 400.063, 177.786 395.250 C 185.030 382.350, 185.195 382, 184.044 382 C 183.479 382, 180.534 386.950, 177.500 393 M 325 383.324 C 325 385.035, 340.009 410.324, 340.647 409.687 C 341.132 409.202, 326.154 382, 325.402 382 C 325.181 382, 325 382.596, 325 383.324 M 254.759 403 C 254.352 403.825, 253.902 411.343, 253.759 419.707 L 253.500 434.914 246.037 428.964 C 235.222 420.342, 223.231 412.486, 214.710 408.439 C 205.872 404.242, 196.338 403.018, 187.890 404.995 C 182.044 406.363, 168 412.038, 168 413.033 C 168 413.370, 171.938 415.697, 176.750 418.204 C 202.889 431.822, 228.274 436.900, 264 435.657 C 283.357 434.984, 295.071 433.047, 310.102 428.033 C 319.957 424.747, 342 414.421, 342 413.092 C 342 411.498, 331.817 406.857, 325.280 405.471 C 307.373 401.677, 298.935 404.690, 270.631 424.984 C 263.715 429.943, 257.605 434, 257.053 434 C 256.434 434, 255.944 427.773, 255.775 417.750 C 255.624 408.813, 255.167 402.175, 254.759 403" stroke="none" fill="black" fill-rule="evenodd"/>
</svg>